#!OML:ASF X:\für Bonn\!DataBase\2005_08_11_Bastian_Final\c3d\Bastian.ASF
:FULLY-SPECIFIED
:DEGREES
98
root -0.154896 9.46927 6.68674 165.644 -7.13881 -176.653
lowerback 25.7872 -2.06777 1.30918
upperback 5.93239 -3.64254 -0.387786
thorax -7.80295 -2.29566 0.0494278
lowerneck -6.35749 -8.59123 -3.33366
upperneck -10.259 -9.79539 11.2713
head -1.40133 -4.53105 4.13504
rclavicle -2.45499e-014 7.55382e-015
rhumerus 69.8931 9.79358 3.8513
rradius 41.9336
rwrist -55.3678
rhand -42.366 -7.79445
rfingers 7.12502
rthumb -15.2478 -37.2125
lclavicle -2.45499e-014 7.55382e-015
lhumerus 65.5584 -13.0534 -9.64878
lradius 32.0243
lwrist 10.2251
lhand -43.4235 12.4114
lfingers 7.12502
lthumb -16.2662 41.749
rfemur -46.9874 -18.0051 29.2542
rtibia 132.495
rfoot -55.3434 -17.2077
rtoes -3.85066
lfemur -50.8459 8.4382 -14.2334
ltibia 134.99
lfoot -48.7429 -16.9797
ltoes -7.31086
99
root -0.155218 9.5108 6.68001 165.671 -7.18626 -176.681
lowerback 25.6634 -2.06928 1.25265
upperback 5.93624 -3.65675 -0.405115
thorax -7.73485 -2.29972 0.060399
lowerneck -6.47441 -8.60823 -3.35705
upperneck -10.1658 -9.82587 11.2668
head -1.34692 -4.54093 4.12707
rclavicle 2.43511e-014 -8.34896e-015
rhumerus 69.9219 9.95728 3.84998
rradius 41.9642
rwrist -55.5359
rhand -42.3422 -7.64152
rfingers 7.12502
rthumb -15.2248 -37.0613
lclavicle 2.43511e-014 -8.34896e-015
lhumerus 65.5063 -13.2344 -9.14008
lradius 31.846
lwrist 9.61956
lhand -43.3006 12.213
lfingers 7.12502
lthumb -16.1478 41.5603
rfemur -46.7795 -17.5929 29.2813
rtibia 132.112
rfoot -55.2322 -17.34
rtoes -3.83811
lfemur -50.655 8.05428 -14.3752
ltibia 134.62
lfoot -48.6276 -16.8115
ltoes -7.42496
100
root -0.156219 9.5634 6.67521 165.704 -7.2528 -176.707
lowerback 25.5368 -2.0763 1.19683
upperback 5.94595 -3.67801 -0.412351
thorax -7.65821 -2.30765 0.0838813
lowerneck -6.60672 -8.62723 -3.40412
upperneck -10.0905 -9.85418 11.2654
head -1.29454 -4.54791 4.12449
rclavicle 3.17062e-014 2.22639e-014
rhumerus 69.9602 10.1283 3.81371
rradius 41.9617
rwrist -55.6169
rhand -42.3731 -7.41357
rfingers 7.12502
rthumb -15.2546 -36.8311
lclavicle 3.17062e-014 2.22639e-014
lhumerus 65.4178 -13.374 -8.44924
lradius 31.6306
lwrist 8.73991
lhand -43.1175 12.0464
lfingers 7.12502
lthumb -15.9715 41.408
rfemur -46.5483 -17.223 29.2781
rtibia 131.633
rfoot -55.098 -17.4382
rtoes -3.88482
lfemur -50.4364 7.58746 -14.5463
ltibia 134.143
lfoot -48.4684 -16.5855
ltoes -7.66638
101
root -0.156287 9.62801 6.67058 165.764 -7.31562 -176.714
lowerback 25.3847 -2.0899 1.16479
upperback 5.94309 -3.69825 -0.42556
thorax -7.58425 -2.31387 0.0858704
lowerneck -6.72501 -8.63664 -3.44933
upperneck -10.0033 -9.86983 11.2876
head -1.2404 -4.54929 4.13057
rclavicle 3.83654e-014 9.54166e-015
rhumerus 69.9963 10.3392 3.70146
rradius 41.952
rwrist -55.6461
rhand -42.4499 -7.18235
rfingers 7.12502
rthumb -15.3285 -36.5942
lclavicle 3.83654e-014 9.54166e-015
lhumerus 65.3055 -13.494 -7.61609
lradius 31.377
lwrist 7.66735
lhand -42.8741 11.8529
lfingers 7.12502
lthumb -15.7371 41.2331
rfemur -46.3038 -16.8491 29.297
rtibia 131.04
rfoot -54.9361 -17.5589
rtoes -3.98028
lfemur -50.1938 7.12569 -14.6839
ltibia 133.565
lfoot -48.2766 -16.4059
ltoes -7.75674
102
root -0.156576 9.70468 6.66681 165.832 -7.39966 -176.745
lowerback 25.2358 -2.09838 1.10973
upperback 5.94096 -3.71806 -0.443254
thorax -7.5101 -2.31961 0.0960023
lowerneck -6.84988 -8.65952 -3.50321
upperneck -9.92862 -9.89964 11.3239
head -1.18691 -4.55671 4.14276
rclavicle 2.68359e-015 6.75868e-015
rhumerus 70.0399 10.5388 3.51328
rradius 41.8791
rwrist -55.4891
rhand -42.4725 -7.00552
rfingers 7.12502
rthumb -15.3503 -36.4157
lclavicle 2.68359e-015 6.75868e-015
lhumerus 65.1873 -13.568 -6.7135
lradius 31.1279
lwrist 6.49402
lhand -42.5976 11.5906
lfingers 7.12502
lthumb -15.4708 40.9916
rfemur -46.0087 -16.5233 29.2392
rtibia 130.345
rfoot -54.7613 -17.5553
rtoes -3.93711
lfemur -49.8912 6.52265 -14.8906
ltibia 132.855
lfoot -48.0677 -16.1987
ltoes -7.80142
103
root -0.156938 9.79353 6.66466 165.956 -7.49033 -176.76
lowerback 25.0321 -2.11358 1.03801
upperback 5.93878 -3.74598 -0.425406
thorax -7.4049 -2.32825 0.153907
lowerneck -7.01907 -8.67189 -3.60528
upperneck -9.84291 -9.91242 11.366
head -1.12049 -4.55233 4.1639
rclavicle 2.78299e-014 -2.82274e-014
rhumerus 70.1163 10.7095 3.39889
rradius 41.816
rwrist -55.3153
rhand -42.5489 -6.83647
rfingers 7.12502
rthumb -15.4239 -36.241
lclavicle 2.78299e-014 -2.82274e-014
lhumerus 65.0443 -13.6312 -5.94028
lradius 30.9071
lwrist 5.47906
lhand -42.3008 11.3516
lfingers 7.12502
lthumb -15.1849 40.7744
rfemur -45.7524 -16.1161 29.2406
rtibia 129.536
rfoot -54.5418 -17.6315
rtoes -3.94806
lfemur -49.6049 5.85145 -15.0956
ltibia 132.04
lfoot -47.8413 -15.9641
ltoes -7.7987
104
root -0.15723 9.8962 6.66331 166.067 -7.57844 -176.795
lowerback 24.8713 -2.12829 0.965853
upperback 5.91879 -3.7727 -0.431344
thorax -7.3426 -2.33532 0.188438
lowerneck -7.13326 -8.67686 -3.69742
upperneck -9.76163 -9.91712 11.4187
head -1.06557 -4.54687 4.19027
rclavicle -3.56818e-014 -7.95139e-016
rhumerus 70.1717 10.9178 3.21448
rradius 41.7335
rwrist -54.9881
rhand -42.5908 -6.76229
rfingers 7.12502
rthumb -15.4643 -36.1637
lclavicle -3.56818e-014 -7.95139e-016
lhumerus 64.9345 -13.7568 -5.51425
lradius 30.8082
lwrist 4.82795
lhand -42.0817 11.0777
lfingers 7.12502
lthumb -14.9739 40.5163
rfemur -45.4005 -15.7084 29.1905
rtibia 128.599
rfoot -54.3213 -17.7423
rtoes -4.14508
lfemur -49.2089 5.20654 -15.3135
ltibia 131.08
lfoot -47.6198 -15.7309
ltoes -7.8505
105
root -0.157202 10.0095 6.66324 166.212 -7.68366 -176.808
lowerback 24.6874 -2.14873 0.913536
upperback 5.90023 -3.80069 -0.434623
thorax -7.26767 -2.34302 0.213492
lowerneck -7.27205 -8.68368 -3.80464
upperneck -9.68659 -9.91529 11.5308
head -1.00463 -4.53537 4.23961
rclavicle -1.11319e-014 1.59028e-014
rhumerus 70.2043 11.0937 3.05081
rradius 41.6759
rwrist -54.7259
rhand -42.6159 -6.67569
rfingers 7.12502
rthumb -15.4885 -36.0753
lclavicle -1.11319e-014 1.59028e-014
lhumerus 64.8618 -13.8695 -5.25696
lradius 30.7559
lwrist 4.3479
lhand -41.8627 10.8373
lfingers 7.12502
lthumb -14.7629 40.2915
rfemur -45.062 -15.2785 29.1648
rtibia 127.57
rfoot -54.0792 -17.7687
rtoes -4.02738
lfemur -48.8083 4.60302 -15.4942
ltibia 130.009
lfoot -47.3374 -15.5655
ltoes -7.70307
